<?xml version="1.0" encoding="utf-8" standalone="no"?>
<!DOCTYPE svg PUBLIC "-//W3C//DTD SVG 1.1//EN"
  "http://www.w3.org/Graphics/SVG/1.1/DTD/svg11.dtd">
<svg height="345.6pt" version="1.1" viewBox="0 0 460.8 345.6" width="460.8pt" xmlns="http://www.w3.org/2000/svg" xmlns:xlink="http://www.w3.org/1999/xlink">
 <metadata>
  <rdf:RDF xmlns:cc="http://creativecommons.org/ns#" xmlns:dc="http://purl.org/dc/elements/1.1/" xmlns:rdf="http://www.w3.org/1999/02/22-rdf-syntax-ns#">
   <cc:Work>
    <dc:type rdf:resource="http://purl.org/dc/dcmitype/StillImage"/>
    <dc:date>2022-01-15T13:36:04.074552</dc:date>
    <dc:format>image/svg+xml</dc:format>
    <dc:creator>
     <cc:Agent>
      <dc:title>Matplotlib v3.4.3, https://matplotlib.org/</dc:title>
     </cc:Agent>
    </dc:creator>
   </cc:Work>
  </rdf:RDF>
 </metadata>
 <defs>
  <style type="text/css">*{stroke-linecap:butt;stroke-linejoin:round;}</style>
 </defs>
 <g id="figure_1">
  <g id="patch_1">
   <path d="M 0 345.6 
L 460.8 345.6 
L 460.8 0 
L 0 0 
z
" style="fill:#ffffff;"/>
  </g>
  <g id="axes_1">
   <g id="patch_2">
    <path d="M 80.265544 281.635053 
L 441.36 281.635053 
L 441.36 19.44 
L 80.265544 19.44 
z
" style="fill:#ffffff;"/>
   </g>
   <g id="patch_3">
    <path clip-path="url(#p1a4a9ad977)" d="M 96.678929 281.635053 
L 165.787915 281.635053 
L 165.787915 78.028383 
L 96.678929 78.028383 
z
" style="fill:#1f77b4;"/>
   </g>
   <g id="patch_4">
    <path clip-path="url(#p1a4a9ad977)" d="M 183.065162 281.635053 
L 252.174149 281.635053 
L 252.174149 76.562543 
L 183.065162 76.562543 
z
" style="fill:#1f77b4;"/>
   </g>
   <g id="patch_5">
    <path clip-path="url(#p1a4a9ad977)" d="M 269.451396 281.635053 
L 338.560382 281.635053 
L 338.560382 31.925479 
L 269.451396 31.925479 
z
" style="fill:#1f77b4;"/>
   </g>
   <g id="patch_6">
    <path clip-path="url(#p1a4a9ad977)" d="M 355.837629 281.635053 
L 424.946616 281.635053 
L 424.946616 31.925479 
L 355.837629 31.925479 
z
" style="fill:#1f77b4;"/>
   </g>
   <g id="matplotlib.axis_1">
    <g id="xtick_1">
     <g id="line2d_1">
      <path clip-path="url(#p1a4a9ad977)" d="M 131.233422 281.635053 
L 131.233422 19.44 
" style="fill:none;stroke:#b0b0b0;stroke-linecap:square;stroke-width:0.8;"/>
     </g>
     <g id="line2d_2">
      <defs>
       <path d="M 0 0 
L 0 3.5 
" id="m2ef94fdefd" style="stroke:#000000;stroke-width:0.8;"/>
      </defs>
      <g>
       <use style="stroke:#000000;stroke-width:0.8;" x="131.233422" xlink:href="#m2ef94fdefd" y="281.635053"/>
      </g>
     </g>
     <g id="text_1">
      <!-- cpu 260 -->
      <g transform="translate(99.331425 301.41203)scale(0.18 -0.18)">
       <defs>
        <path d="M 3014 2237 
C 2989 2561 2918 2771 2790 2956 
C 2560 3270 2157 3456 1690 3456 
C 787 3456 198 2740 198 1632 
C 198 555 774 -128 1683 -128 
C 2483 -128 2989 352 3053 1167 
L 2515 1167 
C 2426 632 2150 364 1696 364 
C 1107 364 755 842 755 1632 
C 755 2466 1101 2963 1683 2963 
C 2131 2963 2413 2701 2477 2237 
L 3014 2237 
z
" id="NimbusSanL-Regu-63" transform="scale(0.015625)"/>
        <path d="M 346 -1408 
L 883 -1408 
L 883 371 
C 1165 25 1478 -128 1914 -128 
C 2778 -128 3347 568 3347 1632 
C 3347 2752 2797 3456 1907 3456 
C 1453 3456 1088 3251 838 2854 
L 838 3359 
L 346 3359 
L 346 -1408 
z
M 1818 2956 
C 2406 2956 2790 2440 2790 1644 
C 2790 887 2400 371 1818 371 
C 1254 371 883 880 883 1663 
C 883 2447 1254 2956 1818 2956 
z
" id="NimbusSanL-Regu-70" transform="scale(0.015625)"/>
        <path d="M 3085 19 
L 3085 3328 
L 2554 3328 
L 2554 1454 
C 2554 780 2195 339 1638 339 
C 1216 339 947 591 947 988 
L 947 3328 
L 416 3328 
L 416 780 
C 416 230 832 -128 1485 -128 
C 1978 -128 2291 44 2605 484 
L 2605 19 
L 3085 19 
z
" id="NimbusSanL-Regu-75" transform="scale(0.015625)"/>
        <path d="M 3238 556 
L 851 556 
C 909 928 1114 1165 1670 1493 
L 2310 1839 
C 2944 2185 3270 2653 3270 3211 
C 3270 3589 3117 3942 2848 4185 
C 2579 4428 2246 4544 1818 4544 
C 1242 4544 813 4339 563 3955 
C 403 3711 333 3429 320 2967 
L 883 2967 
C 902 3275 941 3461 1018 3608 
C 1165 3884 1459 4051 1798 4051 
C 2310 4051 2694 3685 2694 3198 
C 2694 2839 2483 2531 2080 2300 
L 1491 1967 
C 544 1428 269 999 218 0 
L 3238 0 
L 3238 556 
z
" id="NimbusSanL-Regu-32" transform="scale(0.015625)"/>
        <path d="M 3187 3352 
C 3078 4102 2592 4544 1901 4544 
C 1402 4544 954 4300 685 3895 
C 403 3449 275 2887 275 2064 
C 275 1312 390 832 659 434 
C 902 70 1299 -128 1798 -128 
C 2662 -128 3283 510 3283 1388 
C 3283 2221 2707 2816 1894 2816 
C 1446 2816 1094 2643 851 2310 
C 858 3423 1216 4044 1862 4044 
C 2259 4044 2534 3792 2624 3352 
L 3187 3352 
z
M 1824 2316 
C 2368 2316 2707 1944 2707 1343 
C 2707 781 2323 371 1805 371 
C 1280 371 883 800 883 1375 
C 883 1931 1267 2316 1824 2316 
z
" id="NimbusSanL-Regu-36" transform="scale(0.015625)"/>
        <path d="M 1760 4544 
C 1338 4544 954 4358 717 4044 
C 422 3649 275 3043 275 2207 
C 275 683 787 -128 1760 -128 
C 2720 -128 3245 683 3245 2169 
C 3245 3049 3104 3636 2803 4044 
C 2566 4364 2189 4544 1760 4544 
z
M 1760 4044 
C 2368 4044 2669 3432 2669 2220 
C 2669 938 2374 339 1747 339 
C 1152 339 851 964 851 2201 
C 851 3438 1152 4044 1760 4044 
z
" id="NimbusSanL-Regu-30" transform="scale(0.015625)"/>
       </defs>
       <use transform="scale(0.996264)" xlink:href="#NimbusSanL-Regu-63"/>
       <use transform="translate(49.8132 0)scale(0.996264)" xlink:href="#NimbusSanL-Regu-70"/>
       <use transform="translate(105.204877 0)scale(0.996264)" xlink:href="#NimbusSanL-Regu-75"/>
       <use transform="translate(188.291724 0)scale(0.996264)" xlink:href="#NimbusSanL-Regu-32"/>
       <use transform="translate(243.683401 0)scale(0.996264)" xlink:href="#NimbusSanL-Regu-36"/>
       <use transform="translate(299.075078 0)scale(0.996264)" xlink:href="#NimbusSanL-Regu-30"/>
      </g>
     </g>
    </g>
    <g id="xtick_2">
     <g id="line2d_3">
      <path clip-path="url(#p1a4a9ad977)" d="M 217.619655 281.635053 
L 217.619655 19.44 
" style="fill:none;stroke:#b0b0b0;stroke-linecap:square;stroke-width:0.8;"/>
     </g>
     <g id="line2d_4">
      <g>
       <use style="stroke:#000000;stroke-width:0.8;" x="217.619655" xlink:href="#m2ef94fdefd" y="281.635053"/>
      </g>
     </g>
     <g id="text_2">
      <!-- gpu 260 -->
      <g transform="translate(185.215597 301.41203)scale(0.18 -0.18)">
       <defs>
        <path d="M 2637 3359 
L 2637 2873 
C 2368 3270 2042 3456 1613 3456 
C 762 3456 186 2714 186 1632 
C 186 1084 333 638 608 320 
C 858 38 1216 -128 1568 -128 
C 1990 -128 2285 51 2586 473 
L 2586 300 
C 2586 -155 2528 -441 2394 -634 
C 2253 -841 1978 -960 1651 -960 
C 1408 -960 1190 -894 1043 -774 
C 922 -674 870 -581 838 -375 
L 294 -375 
C 352 -1031 845 -1408 1632 -1408 
C 2131 -1408 2560 -1248 2778 -980 
C 3034 -661 3130 -222 3130 568 
L 3130 3359 
L 2637 3359 
z
M 1670 2963 
C 2246 2963 2586 2479 2586 1644 
C 2586 848 2240 364 1677 364 
C 1094 364 742 855 742 1663 
C 742 2466 1101 2963 1670 2963 
z
" id="NimbusSanL-Regu-67" transform="scale(0.015625)"/>
       </defs>
       <use transform="scale(0.996264)" xlink:href="#NimbusSanL-Regu-67"/>
       <use transform="translate(55.391677 0)scale(0.996264)" xlink:href="#NimbusSanL-Regu-70"/>
       <use transform="translate(110.783354 0)scale(0.996264)" xlink:href="#NimbusSanL-Regu-75"/>
       <use transform="translate(193.8702 0)scale(0.996264)" xlink:href="#NimbusSanL-Regu-32"/>
       <use transform="translate(249.261877 0)scale(0.996264)" xlink:href="#NimbusSanL-Regu-36"/>
       <use transform="translate(304.653554 0)scale(0.996264)" xlink:href="#NimbusSanL-Regu-30"/>
      </g>
     </g>
    </g>
    <g id="xtick_3">
     <g id="line2d_5">
      <path clip-path="url(#p1a4a9ad977)" d="M 304.005889 281.635053 
L 304.005889 19.44 
" style="fill:none;stroke:#b0b0b0;stroke-linecap:square;stroke-width:0.8;"/>
     </g>
     <g id="line2d_6">
      <g>
       <use style="stroke:#000000;stroke-width:0.8;" x="304.005889" xlink:href="#m2ef94fdefd" y="281.635053"/>
      </g>
     </g>
     <g id="text_3">
      <!-- cpu 310 -->
      <g transform="translate(272.103892 301.41203)scale(0.18 -0.18)">
       <defs>
        <path d="M 1414 2093 
L 1485 2093 
L 1722 2099 
C 2342 2099 2662 1819 2662 1276 
C 2662 709 2310 371 1722 371 
C 1107 371 806 677 768 1334 
L 205 1334 
C 230 970 294 734 403 530 
C 634 96 1082 -128 1702 -128 
C 2637 -128 3238 428 3238 1283 
C 3238 1857 3014 2176 2470 2361 
C 2893 2526 3104 2845 3104 3298 
C 3104 4076 2586 4544 1722 4544 
C 806 4544 320 4044 301 3081 
L 864 3081 
C 870 3356 896 3509 966 3649 
C 1094 3898 1376 4051 1728 4051 
C 2227 4051 2528 3757 2528 3279 
C 2528 2960 2413 2769 2163 2667 
C 2010 2603 1811 2577 1414 2571 
L 1414 2093 
z
" id="NimbusSanL-Regu-33" transform="scale(0.015625)"/>
        <path d="M 1658 3232 
L 1658 0 
L 2221 0 
L 2221 4537 
L 1850 4537 
C 1651 3840 1523 3744 653 3635 
L 653 3232 
L 1658 3232 
z
" id="NimbusSanL-Regu-31" transform="scale(0.015625)"/>
       </defs>
       <use transform="scale(0.996264)" xlink:href="#NimbusSanL-Regu-63"/>
       <use transform="translate(49.8132 0)scale(0.996264)" xlink:href="#NimbusSanL-Regu-70"/>
       <use transform="translate(105.204877 0)scale(0.996264)" xlink:href="#NimbusSanL-Regu-75"/>
       <use transform="translate(188.291724 0)scale(0.996264)" xlink:href="#NimbusSanL-Regu-33"/>
       <use transform="translate(243.683401 0)scale(0.996264)" xlink:href="#NimbusSanL-Regu-31"/>
       <use transform="translate(299.075078 0)scale(0.996264)" xlink:href="#NimbusSanL-Regu-30"/>
      </g>
     </g>
    </g>
    <g id="xtick_4">
     <g id="line2d_7">
      <path clip-path="url(#p1a4a9ad977)" d="M 390.392122 281.635053 
L 390.392122 19.44 
" style="fill:none;stroke:#b0b0b0;stroke-linecap:square;stroke-width:0.8;"/>
     </g>
     <g id="line2d_8">
      <g>
       <use style="stroke:#000000;stroke-width:0.8;" x="390.392122" xlink:href="#m2ef94fdefd" y="281.635053"/>
      </g>
     </g>
     <g id="text_4">
      <!-- gpu 310 -->
      <g transform="translate(357.988064 301.41203)scale(0.18 -0.18)">
       <use transform="scale(0.996264)" xlink:href="#NimbusSanL-Regu-67"/>
       <use transform="translate(55.391677 0)scale(0.996264)" xlink:href="#NimbusSanL-Regu-70"/>
       <use transform="translate(110.783354 0)scale(0.996264)" xlink:href="#NimbusSanL-Regu-75"/>
       <use transform="translate(193.8702 0)scale(0.996264)" xlink:href="#NimbusSanL-Regu-33"/>
       <use transform="translate(249.261877 0)scale(0.996264)" xlink:href="#NimbusSanL-Regu-31"/>
       <use transform="translate(304.653554 0)scale(0.996264)" xlink:href="#NimbusSanL-Regu-30"/>
      </g>
     </g>
    </g>
    <g id="text_5">
     <!-- Total Power Consumption for MiniFE in W -->
     <g transform="translate(95.914075 322.340431)scale(0.18 -0.18)">
      <defs>
       <path d="M 2266 4147 
L 3795 4147 
L 3795 4672 
L 134 4672 
L 134 4147 
L 1670 4147 
L 1670 0 
L 2266 0 
L 2266 4147 
z
" id="NimbusSanL-Regu-54" transform="scale(0.015625)"/>
       <path d="M 1741 3456 
C 800 3456 230 2784 230 1663 
C 230 543 794 -128 1747 -128 
C 2688 -128 3264 543 3264 1638 
C 3264 2791 2707 3456 1741 3456 
z
M 1747 2963 
C 2349 2963 2707 2472 2707 1644 
C 2707 861 2336 364 1747 364 
C 1152 364 787 855 787 1663 
C 787 2466 1152 2963 1747 2963 
z
" id="NimbusSanL-Regu-6f" transform="scale(0.015625)"/>
       <path d="M 1626 3328 
L 1075 3328 
L 1075 4249 
L 544 4249 
L 544 3328 
L 90 3328 
L 90 2892 
L 544 2892 
L 544 402 
C 544 64 774 -128 1190 -128 
C 1318 -128 1446 -116 1626 -84 
L 1626 364 
C 1555 345 1472 339 1370 339 
C 1139 339 1075 402 1075 634 
L 1075 2892 
L 1626 2892 
L 1626 3328 
z
" id="NimbusSanL-Regu-74" transform="scale(0.015625)"/>
       <path d="M 3424 332 
C 3366 320 3341 320 3309 320 
C 3123 320 3021 415 3021 581 
L 3021 2542 
C 3021 3135 2586 3456 1760 3456 
C 1274 3456 870 3315 646 3065 
C 493 2893 429 2702 416 2370 
L 954 2370 
C 998 2778 1242 2963 1741 2963 
C 2221 2963 2490 2784 2490 2466 
L 2490 2326 
C 2490 2103 2355 2007 1933 1956 
C 1178 1861 1062 1835 858 1753 
C 467 1593 269 1294 269 861 
C 269 256 691 -128 1370 -128 
C 1792 -128 2131 19 2509 364 
C 2547 25 2714 -128 3059 -128 
C 3168 -128 3251 -116 3424 -71 
L 3424 332 
z
M 2490 1071 
C 2490 893 2438 785 2278 638 
C 2061 441 1798 339 1485 339 
C 1069 339 826 536 826 874 
C 826 1224 1062 1402 1632 1485 
C 2195 1562 2310 1587 2490 1670 
L 2490 1071 
z
" id="NimbusSanL-Regu-61" transform="scale(0.015625)"/>
       <path d="M 973 4672 
L 435 4672 
L 435 0 
L 973 0 
L 973 4672 
z
" id="NimbusSanL-Regu-6c" transform="scale(0.015625)"/>
       <path d="M 1178 1984 
L 2643 1984 
C 3008 1984 3296 2092 3546 2316 
C 3827 2572 3949 2873 3949 3302 
C 3949 4179 3430 4672 2509 4672 
L 582 4672 
L 582 0 
L 1178 0 
L 1178 1984 
z
M 1178 2508 
L 1178 4147 
L 2419 4147 
C 2989 4147 3328 3839 3328 3327 
C 3328 2816 2989 2508 2419 2508 
L 1178 2508 
z
" id="NimbusSanL-Regu-50" transform="scale(0.015625)"/>
       <path d="M 3546 0 
L 4531 3328 
L 3930 3328 
L 3264 737 
L 2605 3328 
L 1952 3328 
L 1312 737 
L 627 3328 
L 38 3328 
L 1011 0 
L 1613 0 
L 2259 2609 
L 2938 0 
L 3546 0 
z
" id="NimbusSanL-Regu-77" transform="scale(0.015625)"/>
       <path d="M 3283 1484 
C 3283 1998 3245 2311 3149 2565 
C 2931 3123 2419 3456 1792 3456 
C 858 3456 256 2734 256 1619 
C 256 545 838 -128 1779 -128 
C 2547 -128 3078 307 3213 1018 
L 2675 1018 
C 2528 588 2227 364 1798 364 
C 1459 364 1171 514 992 787 
C 864 974 819 1161 813 1484 
L 3283 1484 
z
M 826 1920 
C 870 2552 1248 2963 1786 2963 
C 2310 2963 2714 2519 2714 1959 
C 2714 1946 2714 1933 2707 1920 
L 826 1920 
z
" id="NimbusSanL-Regu-65" transform="scale(0.015625)"/>
       <path d="M 442 3328 
L 442 0 
L 979 0 
L 979 1727 
C 979 2203 1101 2514 1357 2698 
C 1523 2819 1683 2857 2054 2863 
L 2054 3404 
C 1965 3449 1920 3456 1850 3456 
C 1504 3456 1242 3251 934 2750 
L 934 3328 
L 442 3328 
z
" id="NimbusSanL-Regu-72" transform="scale(0.015625)"/>
       <path d="M 4237 3219 
C 4051 4236 3462 4736 2438 4736 
C 1811 4736 1306 4537 960 4154 
C 538 3696 307 3035 307 2284 
C 307 1522 544 867 986 415 
C 1344 44 1805 -128 2413 -128 
C 3552 -128 4192 485 4333 1712 
L 3718 1712 
C 3667 1394 3603 1178 3507 994 
C 3315 612 2918 396 2419 396 
C 1491 396 902 1134 902 2291 
C 902 3480 1466 4211 2368 4211 
C 2746 4211 3098 4096 3290 3918 
C 3462 3759 3558 3562 3629 3219 
L 4237 3219 
z
" id="NimbusSanL-Regu-43" transform="scale(0.015625)"/>
       <path d="M 448 3328 
L 448 0 
L 986 0 
L 986 1835 
C 986 2539 1344 2988 1894 2988 
C 2317 2988 2586 2732 2586 2328 
L 2586 0 
L 3117 0 
L 3117 2539 
C 3117 3097 2701 3456 2054 3456 
C 1555 3456 1235 3263 941 2796 
L 941 3328 
L 448 3328 
z
" id="NimbusSanL-Regu-6e" transform="scale(0.015625)"/>
       <path d="M 2803 2428 
C 2797 3084 2362 3456 1587 3456 
C 806 3456 301 3052 301 2434 
C 301 1912 570 1663 1363 1472 
L 1862 1351 
C 2234 1262 2381 1129 2381 887 
C 2381 574 2067 364 1600 364 
C 1312 364 1069 447 934 587 
C 851 683 813 778 781 1014 
L 218 1014 
C 243 243 678 -128 1555 -128 
C 2400 -128 2938 288 2938 931 
C 2938 1428 2656 1702 1990 1861 
L 1478 1982 
C 1043 2084 858 2224 858 2459 
C 858 2765 1133 2963 1568 2963 
C 1997 2963 2227 2778 2240 2428 
L 2803 2428 
z
" id="NimbusSanL-Regu-73" transform="scale(0.015625)"/>
       <path d="M 448 3328 
L 448 0 
L 986 0 
L 986 2089 
C 986 2597 1338 2988 1773 2988 
C 2170 2988 2394 2744 2394 2315 
L 2394 0 
L 2931 0 
L 2931 2109 
C 2931 2597 3283 2988 3718 2988 
C 4109 2988 4339 2738 4339 2315 
L 4339 0 
L 4877 0 
L 4877 2520 
C 4877 3123 4531 3456 3904 3456 
C 3456 3456 3187 3321 2874 2943 
C 2675 3302 2406 3456 1971 3456 
C 1523 3456 1229 3289 941 2886 
L 941 3328 
L 448 3328 
z
" id="NimbusSanL-Regu-6d" transform="scale(0.015625)"/>
       <path d="M 960 3358 
L 429 3358 
L 429 0 
L 960 0 
L 960 3358 
z
M 960 4672 
L 422 4672 
L 422 3999 
L 960 3999 
L 960 4672 
z
" id="NimbusSanL-Regu-69" transform="scale(0.015625)"/>
       <path d="M 1651 3328 
L 1094 3328 
L 1094 3860 
C 1094 4087 1222 4204 1466 4204 
C 1510 4204 1530 4204 1651 4198 
L 1651 4639 
C 1530 4665 1459 4672 1350 4672 
C 858 4672 563 4390 563 3905 
L 563 3328 
L 115 3328 
L 115 2892 
L 563 2892 
L 563 0 
L 1094 0 
L 1094 2892 
L 1651 2892 
L 1651 3328 
z
" id="NimbusSanL-Regu-66" transform="scale(0.015625)"/>
       <path d="M 2995 0 
L 4307 3915 
L 4307 0 
L 4870 0 
L 4870 4672 
L 4045 4672 
L 2688 602 
L 1306 4672 
L 480 4672 
L 480 0 
L 1043 0 
L 1043 3915 
L 2368 0 
L 2995 0 
z
" id="NimbusSanL-Regu-4d" transform="scale(0.015625)"/>
       <path d="M 1171 2112 
L 3398 2112 
L 3398 2636 
L 1171 2636 
L 1171 4147 
L 3706 4147 
L 3706 4672 
L 576 4672 
L 576 0 
L 1171 0 
L 1171 2112 
z
" id="NimbusSanL-Regu-46" transform="scale(0.015625)"/>
       <path d="M 1171 2112 
L 3712 2112 
L 3712 2636 
L 1171 2636 
L 1171 4147 
L 3808 4147 
L 3808 4672 
L 576 4672 
L 576 0 
L 3923 0 
L 3923 524 
L 1171 524 
L 1171 2112 
z
" id="NimbusSanL-Regu-45" transform="scale(0.015625)"/>
       <path d="M 4762 0 
L 5946 4672 
L 5280 4672 
L 4422 877 
L 3360 4672 
L 2720 4672 
L 1683 877 
L 806 4672 
L 141 4672 
L 1338 0 
L 1990 0 
L 3034 3838 
L 4109 0 
L 4762 0 
z
" id="NimbusSanL-Regu-57" transform="scale(0.015625)"/>
      </defs>
      <use transform="scale(0.996264)" xlink:href="#NimbusSanL-Regu-54"/>
      <use transform="translate(48.916949 0)scale(0.996264)" xlink:href="#NimbusSanL-Regu-6f"/>
      <use transform="translate(104.308626 0)scale(0.996264)" xlink:href="#NimbusSanL-Regu-74"/>
      <use transform="translate(132.003796 0)scale(0.996264)" xlink:href="#NimbusSanL-Regu-61"/>
      <use transform="translate(187.395473 0)scale(0.996264)" xlink:href="#NimbusSanL-Regu-6c"/>
      <use transform="translate(237.207426 0)scale(0.996264)" xlink:href="#NimbusSanL-Regu-50"/>
      <use transform="translate(298.676107 0)scale(0.996264)" xlink:href="#NimbusSanL-Regu-6f"/>
      <use transform="translate(352.574391 0)scale(0.996264)" xlink:href="#NimbusSanL-Regu-77"/>
      <use transform="translate(423.508279 0)scale(0.996264)" xlink:href="#NimbusSanL-Regu-65"/>
      <use transform="translate(478.899956 0)scale(0.996264)" xlink:href="#NimbusSanL-Regu-72"/>
      <use transform="translate(539.770356 0)scale(0.996264)" xlink:href="#NimbusSanL-Regu-43"/>
      <use transform="translate(611.700341 0)scale(0.996264)" xlink:href="#NimbusSanL-Regu-6f"/>
      <use transform="translate(667.092018 0)scale(0.996264)" xlink:href="#NimbusSanL-Regu-6e"/>
      <use transform="translate(722.483695 0)scale(0.996264)" xlink:href="#NimbusSanL-Regu-73"/>
      <use transform="translate(772.296895 0)scale(0.996264)" xlink:href="#NimbusSanL-Regu-75"/>
      <use transform="translate(827.688572 0)scale(0.996264)" xlink:href="#NimbusSanL-Regu-6d"/>
      <use transform="translate(910.677002 0)scale(0.996264)" xlink:href="#NimbusSanL-Regu-70"/>
      <use transform="translate(966.068679 0)scale(0.996264)" xlink:href="#NimbusSanL-Regu-74"/>
      <use transform="translate(993.763849 0)scale(0.996264)" xlink:href="#NimbusSanL-Regu-69"/>
      <use transform="translate(1015.880633 0)scale(0.996264)" xlink:href="#NimbusSanL-Regu-6f"/>
      <use transform="translate(1071.27231 0)scale(0.996264)" xlink:href="#NimbusSanL-Regu-6e"/>
      <use transform="translate(1154.359157 0)scale(0.996264)" xlink:href="#NimbusSanL-Regu-66"/>
      <use transform="translate(1179.066218 0)scale(0.996264)" xlink:href="#NimbusSanL-Regu-6f"/>
      <use transform="translate(1234.457895 0)scale(0.996264)" xlink:href="#NimbusSanL-Regu-72"/>
      <use transform="translate(1295.328295 0)scale(0.996264)" xlink:href="#NimbusSanL-Regu-4d"/>
      <use transform="translate(1378.316725 0)scale(0.996264)" xlink:href="#NimbusSanL-Regu-69"/>
      <use transform="translate(1400.433509 0)scale(0.996264)" xlink:href="#NimbusSanL-Regu-6e"/>
      <use transform="translate(1455.825186 0)scale(0.996264)" xlink:href="#NimbusSanL-Regu-69"/>
      <use transform="translate(1477.941971 0)scale(0.996264)" xlink:href="#NimbusSanL-Regu-46"/>
      <use transform="translate(1538.813601 0)scale(0.996264)" xlink:href="#NimbusSanL-Regu-45"/>
      <use transform="translate(1632.958802 0)scale(0.996264)" xlink:href="#NimbusSanL-Regu-69"/>
      <use transform="translate(1655.075586 0)scale(0.996264)" xlink:href="#NimbusSanL-Regu-6e"/>
      <use transform="translate(1738.162433 0)scale(0.996264)" xlink:href="#NimbusSanL-Regu-57"/>
     </g>
    </g>
   </g>
   <g id="matplotlib.axis_2">
    <g id="ytick_1">
     <g id="line2d_9">
      <path clip-path="url(#p1a4a9ad977)" d="M 80.265544 281.635053 
L 441.36 281.635053 
" style="fill:none;stroke:#b0b0b0;stroke-linecap:square;stroke-width:0.8;"/>
     </g>
     <g id="line2d_10">
      <defs>
       <path d="M 0 0 
L -3.5 0 
" id="m449cbfa33e" style="stroke:#000000;stroke-width:0.8;"/>
      </defs>
      <g>
       <use style="stroke:#000000;stroke-width:0.8;" x="80.265544" xlink:href="#m449cbfa33e" y="281.635053"/>
      </g>
     </g>
     <g id="text_6">
      <!-- $\mathdefault{0}$ -->
      <g transform="translate(65.041258 288.023542)scale(0.18 -0.18)">
       <defs>
        <path d="M 2688 2038 
C 2688 2430 2682 3099 2413 3613 
C 2176 4063 1798 4224 1466 4224 
C 1158 4224 768 4082 525 3620 
C 269 3137 243 2539 243 2038 
C 243 1671 250 1112 448 623 
C 723 -39 1216 -128 1466 -128 
C 1760 -128 2208 -7 2470 604 
C 2662 1048 2688 1568 2688 2038 
z
M 1466 -26 
C 1056 -26 813 328 723 816 
C 653 1196 653 1749 653 2109 
C 653 2604 653 3015 736 3407 
C 858 3954 1216 4121 1466 4121 
C 1728 4121 2067 3947 2189 3420 
C 2272 3054 2278 2623 2278 2109 
C 2278 1691 2278 1176 2202 797 
C 2067 96 1690 -26 1466 -26 
z
" id="CMR17-30" transform="scale(0.015625)"/>
       </defs>
       <use transform="scale(0.996264)" xlink:href="#CMR17-30"/>
      </g>
     </g>
    </g>
    <g id="ytick_2">
     <g id="line2d_11">
      <path clip-path="url(#p1a4a9ad977)" d="M 80.265544 231.945561 
L 441.36 231.945561 
" style="fill:none;stroke:#b0b0b0;stroke-linecap:square;stroke-width:0.8;"/>
     </g>
     <g id="line2d_12">
      <g>
       <use style="stroke:#000000;stroke-width:0.8;" x="80.265544" xlink:href="#m449cbfa33e" y="231.945561"/>
      </g>
     </g>
     <g id="text_7">
      <!-- $\mathdefault{1000}$ -->
      <g transform="translate(40.368401 238.334049)scale(0.18 -0.18)">
       <defs>
        <path d="M 1702 4083 
C 1702 4217 1696 4224 1606 4224 
C 1357 3927 979 3833 621 3820 
C 602 3820 570 3820 563 3808 
C 557 3795 557 3782 557 3648 
C 755 3648 1088 3686 1344 3839 
L 1344 467 
C 1344 243 1331 166 781 166 
L 589 166 
L 589 0 
C 896 6 1216 12 1523 12 
C 1830 12 2150 6 2458 0 
L 2458 166 
L 2266 166 
C 1715 166 1702 236 1702 467 
L 1702 4083 
z
" id="CMR17-31" transform="scale(0.015625)"/>
       </defs>
       <use transform="scale(0.996264)" xlink:href="#CMR17-31"/>
       <use transform="translate(45.690477 0)scale(0.996264)" xlink:href="#CMR17-30"/>
       <use transform="translate(91.380954 0)scale(0.996264)" xlink:href="#CMR17-30"/>
       <use transform="translate(137.071431 0)scale(0.996264)" xlink:href="#CMR17-30"/>
      </g>
     </g>
    </g>
    <g id="ytick_3">
     <g id="line2d_13">
      <path clip-path="url(#p1a4a9ad977)" d="M 80.265544 182.256069 
L 441.36 182.256069 
" style="fill:none;stroke:#b0b0b0;stroke-linecap:square;stroke-width:0.8;"/>
     </g>
     <g id="line2d_14">
      <g>
       <use style="stroke:#000000;stroke-width:0.8;" x="80.265544" xlink:href="#m449cbfa33e" y="182.256069"/>
      </g>
     </g>
     <g id="text_8">
      <!-- $\mathdefault{2000}$ -->
      <g transform="translate(40.368401 188.644557)scale(0.18 -0.18)">
       <defs>
        <path d="M 2669 990 
L 2554 990 
C 2490 537 2438 460 2413 422 
C 2381 371 1920 371 1830 371 
L 602 371 
C 832 620 1280 1073 1824 1596 
C 2214 1966 2669 2400 2669 3033 
C 2669 3788 2067 4224 1395 4224 
C 691 4224 262 3603 262 3027 
C 262 2777 448 2745 525 2745 
C 589 2745 781 2783 781 3007 
C 781 3206 614 3264 525 3264 
C 486 3264 448 3257 422 3244 
C 544 3788 915 4057 1306 4057 
C 1862 4057 2227 3616 2227 3033 
C 2227 2477 1901 1998 1536 1583 
L 262 147 
L 262 0 
L 2515 0 
L 2669 990 
z
" id="CMR17-32" transform="scale(0.015625)"/>
       </defs>
       <use transform="scale(0.996264)" xlink:href="#CMR17-32"/>
       <use transform="translate(45.690477 0)scale(0.996264)" xlink:href="#CMR17-30"/>
       <use transform="translate(91.380954 0)scale(0.996264)" xlink:href="#CMR17-30"/>
       <use transform="translate(137.071431 0)scale(0.996264)" xlink:href="#CMR17-30"/>
      </g>
     </g>
    </g>
    <g id="ytick_4">
     <g id="line2d_15">
      <path clip-path="url(#p1a4a9ad977)" d="M 80.265544 132.566576 
L 441.36 132.566576 
" style="fill:none;stroke:#b0b0b0;stroke-linecap:square;stroke-width:0.8;"/>
     </g>
     <g id="line2d_16">
      <g>
       <use style="stroke:#000000;stroke-width:0.8;" x="80.265544" xlink:href="#m449cbfa33e" y="132.566576"/>
      </g>
     </g>
     <g id="text_9">
      <!-- $\mathdefault{3000}$ -->
      <g transform="translate(40.368401 138.955065)scale(0.18 -0.18)">
       <defs>
        <path d="M 1414 2176 
C 1984 2176 2234 1673 2234 1094 
C 2234 322 1824 25 1453 25 
C 1114 25 563 193 390 691 
C 422 678 454 678 486 678 
C 640 678 755 780 755 947 
C 755 1132 614 1216 486 1216 
C 378 1216 211 1164 211 927 
C 211 335 787 -128 1466 -128 
C 2176 -128 2720 432 2720 1087 
C 2720 1718 2208 2176 1600 2246 
C 2086 2347 2554 2776 2554 3353 
C 2554 3856 2048 4224 1472 4224 
C 890 4224 378 3862 378 3347 
C 378 3123 544 3084 627 3084 
C 762 3084 877 3167 877 3334 
C 877 3500 762 3584 627 3584 
C 602 3584 570 3584 544 3571 
C 730 3999 1235 4076 1459 4076 
C 1683 4076 2106 3966 2106 3347 
C 2106 3167 2080 2851 1862 2574 
C 1670 2329 1453 2316 1242 2297 
C 1210 2297 1062 2284 1037 2284 
C 992 2278 966 2272 966 2227 
C 966 2182 973 2176 1101 2176 
L 1414 2176 
z
" id="CMR17-33" transform="scale(0.015625)"/>
       </defs>
       <use transform="scale(0.996264)" xlink:href="#CMR17-33"/>
       <use transform="translate(45.690477 0)scale(0.996264)" xlink:href="#CMR17-30"/>
       <use transform="translate(91.380954 0)scale(0.996264)" xlink:href="#CMR17-30"/>
       <use transform="translate(137.071431 0)scale(0.996264)" xlink:href="#CMR17-30"/>
      </g>
     </g>
    </g>
    <g id="ytick_5">
     <g id="line2d_17">
      <path clip-path="url(#p1a4a9ad977)" d="M 80.265544 82.877084 
L 441.36 82.877084 
" style="fill:none;stroke:#b0b0b0;stroke-linecap:square;stroke-width:0.8;"/>
     </g>
     <g id="line2d_18">
      <g>
       <use style="stroke:#000000;stroke-width:0.8;" x="80.265544" xlink:href="#m449cbfa33e" y="82.877084"/>
      </g>
     </g>
     <g id="text_10">
      <!-- $\mathdefault{4000}$ -->
      <g transform="translate(40.368401 89.265572)scale(0.18 -0.18)">
       <defs>
        <path d="M 2150 4147 
C 2150 4281 2144 4288 2029 4288 
L 128 1254 
L 128 1088 
L 1779 1088 
L 1779 460 
C 1779 230 1766 166 1318 166 
L 1197 166 
L 1197 0 
C 1402 12 1747 12 1965 12 
C 2182 12 2528 12 2733 0 
L 2733 166 
L 2611 166 
C 2163 166 2150 230 2150 460 
L 2150 1088 
L 2803 1088 
L 2803 1254 
L 2150 1254 
L 2150 4147 
z
M 1798 3723 
L 1798 1254 
L 256 1254 
L 1798 3723 
z
" id="CMR17-34" transform="scale(0.015625)"/>
       </defs>
       <use transform="scale(0.996264)" xlink:href="#CMR17-34"/>
       <use transform="translate(45.690477 0)scale(0.996264)" xlink:href="#CMR17-30"/>
       <use transform="translate(91.380954 0)scale(0.996264)" xlink:href="#CMR17-30"/>
       <use transform="translate(137.071431 0)scale(0.996264)" xlink:href="#CMR17-30"/>
      </g>
     </g>
    </g>
    <g id="ytick_6">
     <g id="line2d_19">
      <path clip-path="url(#p1a4a9ad977)" d="M 80.265544 33.187592 
L 441.36 33.187592 
" style="fill:none;stroke:#b0b0b0;stroke-linecap:square;stroke-width:0.8;"/>
     </g>
     <g id="line2d_20">
      <g>
       <use style="stroke:#000000;stroke-width:0.8;" x="80.265544" xlink:href="#m449cbfa33e" y="33.187592"/>
      </g>
     </g>
     <g id="text_11">
      <!-- $\mathdefault{5000}$ -->
      <g transform="translate(40.368401 39.57608)scale(0.18 -0.18)">
       <defs>
        <path d="M 730 3750 
C 794 3724 1056 3641 1325 3641 
C 1920 3641 2246 3961 2432 4140 
C 2432 4191 2432 4224 2394 4224 
C 2387 4224 2374 4224 2323 4198 
C 2099 4102 1837 4032 1517 4032 
C 1325 4032 1037 4055 723 4191 
C 653 4224 640 4224 634 4224 
C 602 4224 595 4217 595 4090 
L 595 2231 
C 595 2113 595 2080 659 2080 
C 691 2080 704 2093 736 2139 
C 941 2435 1222 2560 1542 2560 
C 1766 2560 2246 2415 2246 1293 
C 2246 1087 2246 716 2054 422 
C 1894 159 1645 25 1370 25 
C 947 25 518 319 403 812 
C 429 806 480 793 506 793 
C 589 793 749 838 749 1036 
C 749 1209 627 1280 506 1280 
C 358 1280 262 1190 262 1011 
C 262 454 704 -128 1382 -128 
C 2042 -128 2669 441 2669 1267 
C 2669 2054 2170 2662 1549 2662 
C 1222 2662 947 2540 730 2304 
L 730 3750 
z
" id="CMR17-35" transform="scale(0.015625)"/>
       </defs>
       <use transform="scale(0.996264)" xlink:href="#CMR17-35"/>
       <use transform="translate(45.690477 0)scale(0.996264)" xlink:href="#CMR17-30"/>
       <use transform="translate(91.380954 0)scale(0.996264)" xlink:href="#CMR17-30"/>
       <use transform="translate(137.071431 0)scale(0.996264)" xlink:href="#CMR17-30"/>
      </g>
     </g>
    </g>
    <g id="text_12">
     <!-- performance -->
     <g transform="translate(32.548831 200.820477)rotate(-90)scale(0.18 -0.18)">
      <use transform="scale(0.996264)" xlink:href="#NimbusSanL-Regu-70"/>
      <use transform="translate(55.391677 0)scale(0.996264)" xlink:href="#NimbusSanL-Regu-65"/>
      <use transform="translate(110.783354 0)scale(0.996264)" xlink:href="#NimbusSanL-Regu-72"/>
      <use transform="translate(143.958584 0)scale(0.996264)" xlink:href="#NimbusSanL-Regu-66"/>
      <use transform="translate(168.665645 0)scale(0.996264)" xlink:href="#NimbusSanL-Regu-6f"/>
      <use transform="translate(224.057322 0)scale(0.996264)" xlink:href="#NimbusSanL-Regu-72"/>
      <use transform="translate(259.723166 0)scale(0.996264)" xlink:href="#NimbusSanL-Regu-6d"/>
      <use transform="translate(342.711597 0)scale(0.996264)" xlink:href="#NimbusSanL-Regu-61"/>
      <use transform="translate(398.103274 0)scale(0.996264)" xlink:href="#NimbusSanL-Regu-6e"/>
      <use transform="translate(453.494951 0)scale(0.996264)" xlink:href="#NimbusSanL-Regu-63"/>
      <use transform="translate(503.308151 0)scale(0.996264)" xlink:href="#NimbusSanL-Regu-65"/>
     </g>
    </g>
   </g>
   <g id="patch_7">
    <path d="M 80.265544 281.635053 
L 80.265544 19.44 
" style="fill:none;stroke:#000000;stroke-linecap:square;stroke-linejoin:miter;stroke-width:0.8;"/>
   </g>
   <g id="patch_8">
    <path d="M 441.36 281.635053 
L 441.36 19.44 
" style="fill:none;stroke:#000000;stroke-linecap:square;stroke-linejoin:miter;stroke-width:0.8;"/>
   </g>
   <g id="patch_9">
    <path d="M 80.265544 281.635053 
L 441.36 281.635053 
" style="fill:none;stroke:#000000;stroke-linecap:square;stroke-linejoin:miter;stroke-width:0.8;"/>
   </g>
   <g id="patch_10">
    <path d="M 80.265544 19.44 
L 441.36 19.44 
" style="fill:none;stroke:#000000;stroke-linecap:square;stroke-linejoin:miter;stroke-width:0.8;"/>
   </g>
  </g>
 </g>
 <defs>
  <clipPath id="p1a4a9ad977">
   <rect height="262.195053" width="361.094456" x="80.265544" y="19.44"/>
  </clipPath>
 </defs>
</svg>
